<svg width="42" height="42" viewBox="0 0 42 42" fill="none" xmlns="http://www.w3.org/2000/svg">
<path d="M33.25 12.25H28V10.5C28 8.64348 27.2625 6.86301 25.9497 5.55025C24.637 4.2375 22.8565 3.5 21 3.5C19.1435 3.5 17.363 4.2375 16.0503 5.55025C14.7375 6.86301 14 8.64348 14 10.5V12.25H8.75C8.28587 12.25 7.84075 12.4344 7.51256 12.7626C7.18437 13.0908 7 13.5359 7 14V33.25C7 34.6424 7.55312 35.9777 8.53769 36.9623C9.52226 37.9469 10.8576 38.5 12.25 38.5H29.75C31.1424 38.5 32.4777 37.9469 33.4623 36.9623C34.4469 35.9777 35 34.6424 35 33.25V14C35 13.5359 34.8156 13.0908 34.4874 12.7626C34.1593 12.4344 33.7141 12.25 33.25 12.25ZM17.5 10.5C17.5 9.57174 17.8687 8.6815 18.5251 8.02513C19.1815 7.36875 20.0717 7 21 7C21.9283 7 22.8185 7.36875 23.4749 8.02513C24.1313 8.6815 24.5 9.57174 24.5 10.5V12.25H17.5V10.5ZM31.5 33.25C31.5 33.7141 31.3156 34.1593 30.9874 34.4874C30.6593 34.8156 30.2141 35 29.75 35H12.25C11.7859 35 11.3408 34.8156 11.0126 34.4874C10.6844 34.1593 10.5 33.7141 10.5 33.25V15.75H14V17.5C14 17.9641 14.1844 18.4092 14.5126 18.7374C14.8408 19.0656 15.2859 19.25 15.75 19.25C16.2141 19.25 16.6592 19.0656 16.9874 18.7374C17.3156 18.4092 17.5 17.9641 17.5 17.5V15.75H24.5V17.5C24.5 17.9641 24.6844 18.4092 25.0126 18.7374C25.3408 19.0656 25.7859 19.25 26.25 19.25C26.7141 19.25 27.1592 19.0656 27.4874 18.7374C27.8156 18.4092 28 17.9641 28 17.5V15.75H31.5V33.25Z" fill="black"/>
</svg>
