<svg width="42" height="42" viewBox="0 0 42 42" fill="none" xmlns="http://www.w3.org/2000/svg">
<path d="M21.77 22.9425L21.4725 22.75C21.1522 22.6182 20.7999 22.5844 20.4603 22.6529C20.1207 22.7214 19.8091 22.8892 19.565 23.135C19.3961 23.2903 19.2645 23.4817 19.18 23.695C19.0881 23.9108 19.0405 24.1429 19.04 24.3775C19.0428 24.6062 19.0903 24.8321 19.18 25.0425C19.368 25.463 19.7045 25.7994 20.125 25.9875C20.3354 26.0772 20.5613 26.1247 20.79 26.1275C21.0242 26.1231 21.2555 26.0757 21.4725 25.9875C21.6825 25.897 21.8728 25.7662 22.0325 25.6025C22.3584 25.2746 22.5414 24.8311 22.5414 24.3687C22.5414 23.9064 22.3584 23.4629 22.0325 23.135L21.77 22.9425ZM20.79 10.5C19.955 10.4906 19.132 10.6986 18.4017 11.1036C17.6715 11.5086 17.0592 12.0967 16.625 12.81C16.4984 13.0092 16.4134 13.2319 16.3751 13.4648C16.3368 13.6977 16.346 13.9359 16.4021 14.1652C16.4583 14.3944 16.5602 14.6099 16.7018 14.7988C16.8434 14.9876 17.0217 15.1458 17.2261 15.2639C17.4304 15.382 17.6565 15.4576 17.8908 15.4861C18.1251 15.5145 18.3628 15.4953 18.5894 15.4295C18.8161 15.3638 19.0271 15.2528 19.2098 15.1034C19.3925 14.954 19.5431 14.7691 19.6525 14.56C19.7816 14.3805 19.9529 14.2355 20.1513 14.1378C20.3497 14.0402 20.569 13.9928 20.79 14C21.1381 14 21.4719 14.1383 21.7181 14.3844C21.9642 14.6306 22.1025 14.9644 22.1025 15.3125C22.1025 15.6606 21.9642 15.9944 21.7181 16.2406C21.4719 16.4867 21.1381 16.625 20.79 16.625C20.3259 16.625 19.8808 16.8094 19.5526 17.1376C19.2244 17.4657 19.04 17.9109 19.04 18.375C19.04 18.8391 19.2244 19.2842 19.5526 19.6124C19.8808 19.9406 20.3259 20.125 20.79 20.125C22.0664 20.125 23.2904 19.618 24.193 18.7154C25.0955 17.8129 25.6025 16.5888 25.6025 15.3125C25.6025 14.0361 25.0955 12.8121 24.193 11.9095C23.2904 11.007 22.0664 10.5 20.79 10.5ZM35.805 16.94C35.573 14.3756 34.6792 11.9153 33.2112 9.79983C31.7432 7.68439 29.7512 5.98625 27.43 4.87155C25.1089 3.75684 22.5382 3.26376 19.9694 3.44052C17.4005 3.61729 14.9216 4.45786 12.775 5.87999C10.9361 7.10962 9.39235 8.73126 8.25466 10.6284C7.11696 12.5256 6.41357 14.6512 6.19501 16.8525C5.9806 19.0394 6.25568 21.2466 7.0003 23.314C7.74492 25.3813 8.9404 27.257 10.5 28.805L19.775 38.0975C19.9377 38.2615 20.1312 38.3917 20.3445 38.4805C20.5577 38.5694 20.7865 38.6151 21.0175 38.6151C21.2485 38.6151 21.4773 38.5694 21.6905 38.4805C21.9038 38.3917 22.0973 38.2615 22.26 38.0975L31.5 28.805C33.0596 27.257 34.2551 25.3813 34.9997 23.314C35.7443 21.2466 36.0194 19.0394 35.805 16.8525V16.94ZM29.05 26.3375L21 34.3875L12.95 26.3375C11.7637 25.1511 10.8549 23.7166 10.2891 22.1371C9.72324 20.5576 9.51438 18.8723 9.67751 17.2025C9.84169 15.5069 10.3806 13.869 11.2553 12.4072C12.1299 10.9454 13.3185 9.69623 14.735 8.74999C16.5917 7.51665 18.771 6.85876 21 6.85876C23.229 6.85876 25.4084 7.51665 27.265 8.74999C28.6772 9.69257 29.8632 10.9362 30.7376 12.3916C31.6121 13.847 32.1533 15.478 32.3225 17.1675C32.491 18.843 32.2847 20.535 31.7187 22.1209C31.1527 23.7069 30.2412 25.1472 29.05 26.3375Z" fill="black"/>
</svg>
