<svg width="174" height="174" viewBox="0 0 174 174" fill="none" xmlns="http://www.w3.org/2000/svg">
<path d="M61.3349 81.8525L102.37 40.89C103.044 40.2105 103.846 39.6711 104.729 39.303C105.613 38.935 106.56 38.7455 107.517 38.7455C108.475 38.7455 109.422 38.935 110.306 39.303C111.189 39.6711 111.991 40.2105 112.665 40.89C114.015 42.2484 114.773 44.0859 114.773 46.0012C114.773 47.9166 114.015 49.7541 112.665 51.1125L76.7774 87.3625L112.665 123.25C114.015 124.608 114.773 126.446 114.773 128.361C114.773 130.277 114.015 132.114 112.665 133.472C111.993 134.158 111.193 134.703 110.309 135.076C109.426 135.449 108.477 135.644 107.517 135.647C106.558 135.644 105.609 135.449 104.726 135.076C103.842 134.703 103.041 134.158 102.37 133.472L61.3349 92.51C60.599 91.8311 60.0117 91.0071 59.61 90.09C59.2083 89.1729 59.0009 88.1825 59.0009 87.1812C59.0009 86.18 59.2083 85.1896 59.61 84.2725C60.0117 83.3554 60.599 82.5314 61.3349 81.8525V81.8525Z" fill="#0081F9"/>
</svg>
