<svg width="83" height="54" viewBox="0 0 83 54" fill="none" xmlns="http://www.w3.org/2000/svg">
<path d="M55.9593 31.3366L69.8119 25.0739L55.9593 18.8107L42.1072 25.0739L55.9593 31.3366Z" fill="#C6D1E0"/>
<path d="M41.4426 0L0 18.7891L13.7375 25.0523L41.4426 37.5783L55.2951 31.3155L27.59 18.7891L41.4426 12.526L69.1473 25.0523L83 19L41.4426 0Z" fill="#0081F9"/>
<path d="M27.5902 18.7892L41.4427 25.0524V12.526L27.5902 18.7892Z" fill="#004CA2"/>
<path d="M41.4427 12.526V25.0524L55.2953 31.3156L69.1474 25.0524L41.4427 12.526Z" fill="#013563"/>
<path d="M39 26L41.5 39.5L83 19L68.5 12.5L39 26Z" fill="#0081F9"/>
<path d="M0 18.7862V34.5L27.5902 46.9637L41.4427 53.2265V37.5783L0 18.7862Z" fill="#013563"/>
<path d="M0 18.7873V34.4354L13.8524 40.6983V25.05L0 18.7873Z" fill="#013563"/>
<path d="M41.4427 37.5783V53.2265L83 34.5V19L41.4427 37.5783Z" fill="#004CA2"/>
</svg>
