<svg width="489" height="631" viewBox="0 0 489 631" fill="none" xmlns="http://www.w3.org/2000/svg">
<g clip-path="url(#clip0_54_16)">
<rect width="489" height="631" fill="white"/>
<path d="M114.265 564.744C115.982 566.014 117.932 566.931 120.065 567.456C124.403 568.533 129.019 567.896 133.052 565.666C137.085 563.436 140.08 559.866 141.478 555.626C142.165 553.535 142.429 551.402 142.263 549.266C142.092 547.04 141.462 544.93 140.387 542.985L139.558 541.485C139.367 541.141 138.936 541.017 138.592 541.207L135.592 542.865C135.247 543.056 135.123 543.487 135.313 543.832L136.143 545.332C139.198 550.859 136.761 558.074 130.706 561.422C124.65 564.769 117.244 562.996 114.188 557.468C112.935 555.202 112.561 552.623 113.106 550.001C113.644 547.405 115.08 544.964 117.146 543.126C118.327 542.074 119.123 540.64 119.382 539.076C119.64 537.516 119.366 535.915 118.603 534.531L117.639 532.786C117.448 532.442 117.017 532.318 116.673 532.508L113.673 534.166C113.328 534.357 113.204 534.788 113.395 535.133L114.359 536.877C114.841 537.749 114.659 538.851 113.925 539.503C111.086 542.03 109.109 545.408 108.355 549.016C107.979 550.841 107.913 552.677 108.166 554.487C108.429 556.366 109.029 558.159 109.944 559.815C111.019 561.759 112.474 563.421 114.265 564.744V564.744ZM112.721 528.89C114.438 527.941 115.062 525.776 114.113 524.059C113.164 522.343 110.998 521.719 109.282 522.668C107.565 523.617 106.942 525.782 107.891 527.499C108.84 529.215 111.005 529.839 112.721 528.89Z" fill="#18C4FF"/>
<path d="M381 425.679C382.032 427.549 383.423 429.194 385.143 430.561C388.637 433.347 393.099 434.691 397.694 434.345C402.29 433.999 406.5 432.001 409.538 428.73C411.033 427.115 412.162 425.286 412.902 423.276C413.673 421.181 413.98 419 413.813 416.784L413.685 415.075C413.655 414.683 413.315 414.39 412.922 414.42L409.504 414.677C409.112 414.707 408.819 415.047 408.849 415.439L408.977 417.148C409.452 423.447 404.229 428.99 397.33 429.509C390.431 430.029 384.437 425.331 383.962 419.032C383.768 416.45 384.503 413.95 386.091 411.794C387.661 409.657 389.984 408.037 392.628 407.227C394.14 406.763 395.461 405.792 396.348 404.477C397.233 403.167 397.651 401.597 397.534 400.021L397.385 398.033C397.355 397.641 397.015 397.348 396.622 397.378L393.204 397.635C392.812 397.665 392.519 398.005 392.549 398.398L392.698 400.385C392.773 401.379 392.149 402.304 391.209 402.592C387.576 403.706 384.371 405.952 382.182 408.918C381.079 410.42 380.254 412.061 379.731 413.813C379.186 415.63 378.984 417.51 379.126 419.397C379.293 421.612 379.924 423.729 381 425.679V425.679ZM394.538 392.442C396.494 392.295 397.963 390.587 397.816 388.631C397.669 386.675 395.96 385.206 394.004 385.353C392.048 385.5 390.579 387.209 390.727 389.165C390.874 391.121 392.582 392.59 394.538 392.442Z" fill="#18C4FF"/>
<g clip-path="url(#clip1_54_16)">
<path d="M371.417 564.086C373.418 564.835 375.544 565.181 377.739 565.101C382.206 564.945 386.47 563.065 389.736 559.814C393.001 556.562 394.901 552.307 395.081 547.846C395.167 545.647 394.835 543.523 394.09 541.515C393.314 539.421 392.128 537.565 390.561 535.991L389.352 534.776C389.074 534.497 388.625 534.496 388.346 534.774L385.917 537.192C385.638 537.47 385.637 537.919 385.915 538.197L387.124 539.412C391.58 543.888 391.217 551.495 386.314 556.377C381.411 561.258 373.802 561.587 369.346 557.111C367.519 555.275 366.451 552.898 366.255 550.227C366.059 547.583 366.77 544.842 368.252 542.507C369.099 541.171 369.471 539.574 369.29 537.999C369.11 536.428 368.407 534.964 367.293 533.842L365.887 532.43C365.609 532.151 365.16 532.15 364.881 532.427L362.452 534.846C362.173 535.123 362.172 535.572 362.45 535.851L363.856 537.264C364.559 537.97 364.687 539.079 364.16 539.908C362.124 543.117 361.15 546.908 361.416 550.584C361.555 552.443 361.996 554.226 362.737 555.897C363.505 557.632 364.574 559.192 365.909 560.532C367.476 562.107 369.332 563.305 371.417 564.086V564.086ZM360.089 530.033C361.479 528.649 361.484 526.396 360.1 525.006C358.716 523.616 356.463 523.611 355.073 524.995C353.683 526.379 353.678 528.632 355.062 530.022C356.445 531.412 358.699 531.417 360.089 530.033Z" fill="#18C4FF"/>
</g>
<g clip-path="url(#clip2_54_16)">
<path d="M53.2781 404.024C52.533 406.026 52.1918 408.153 52.2771 410.348C52.4432 414.814 54.3329 419.074 57.5915 422.332C60.8501 425.591 65.1097 427.481 69.5712 427.651C71.7706 427.732 73.8936 427.395 75.9 426.646C77.9916 425.865 79.8453 424.675 81.4163 423.104L82.6282 421.892C82.9065 421.614 82.9065 421.165 82.6282 420.887L80.2044 418.463C79.9261 418.185 79.4773 418.185 79.199 418.463L77.9871 419.675C73.5211 424.141 65.9131 423.796 61.0207 418.903C56.1282 414.011 55.7826 406.403 60.2487 401.937C62.08 400.105 64.4544 399.033 67.125 398.831C69.7687 398.629 72.5112 399.333 74.8496 400.81C76.1872 401.654 77.7851 402.022 79.3606 401.838C80.9306 401.655 82.3931 400.948 83.5124 399.832L84.9218 398.422C85.2001 398.144 85.2001 397.695 84.9218 397.417L82.498 394.993C82.2197 394.715 81.7709 394.715 81.4926 394.993L80.0832 396.402C79.3785 397.107 78.2699 397.237 77.4395 396.712C74.2258 394.683 70.433 393.718 66.7569 393.992C64.8987 394.136 63.1168 394.58 61.4471 395.325C59.7145 396.097 58.157 397.17 56.8195 398.508C55.2485 400.078 54.0546 401.937 53.2781 404.024V404.024ZM87.3052 392.619C88.6921 394.006 90.9453 394.006 92.3322 392.619C93.7192 391.232 93.7192 388.978 92.3322 387.592C90.9453 386.205 88.6921 386.205 87.3052 387.592C85.9182 388.979 85.9182 391.232 87.3052 392.619Z" fill="#18C4FF"/>
</g>
<path d="M74.711 178.259C72.6714 177.625 70.5283 177.401 68.3414 177.606C63.8912 178.017 59.7416 180.137 56.6663 183.569C53.5911 187.001 51.9376 191.358 52.0117 195.822C52.0515 198.023 52.5039 200.124 53.3623 202.086C54.2567 204.132 55.5459 205.918 57.2005 207.4L58.477 208.544C58.7701 208.807 59.2183 208.782 59.4809 208.489L61.7683 205.936C62.0309 205.643 62.0063 205.195 61.7132 204.932L60.4367 203.789C55.7328 199.574 55.6611 191.958 60.2782 186.805C64.8953 181.652 72.4729 180.89 77.1769 185.105C79.1057 186.833 80.3069 189.145 80.6549 191.801C81.0014 194.43 80.448 197.207 79.1016 199.622C78.3323 201.004 78.0523 202.62 78.3224 204.183C78.5915 205.74 79.3774 207.162 80.5531 208.219L82.0376 209.549C82.3307 209.811 82.7789 209.787 83.0415 209.494L85.3289 206.941C85.5915 206.648 85.5669 206.199 85.2738 205.937L83.7893 204.607C83.0471 203.942 82.8564 202.842 83.3353 201.984C85.185 198.664 85.9408 194.824 85.466 191.168C85.2208 189.321 84.6795 187.566 83.8441 185.939C82.9783 184.252 81.8219 182.755 80.4131 181.493C78.7584 180.011 76.8376 178.92 74.711 178.259V178.259ZM87.963 211.61C86.6542 213.071 86.7776 215.321 88.2384 216.63C89.6992 217.939 91.9491 217.815 93.2579 216.355C94.5668 214.894 94.4434 212.644 92.9826 211.335C91.5217 210.026 89.2719 210.15 87.963 211.61Z" fill="#18C4FF"/>
<path d="M141.346 64.251C141.647 62.1363 141.526 59.985 140.975 57.8589C139.859 53.5312 137.104 49.773 133.225 47.2848C129.346 44.7966 124.782 43.8595 120.386 44.645C118.221 45.0354 116.218 45.8173 114.418 46.9778C112.541 48.1871 110.984 49.7448 109.785 51.6148L108.859 53.0574C108.647 53.3886 108.742 53.8271 109.074 54.0396L111.959 55.8903C112.29 56.1028 112.729 56.007 112.941 55.6758L113.867 54.2332C117.277 48.917 124.783 47.6311 130.607 51.3668C136.431 55.1025 138.392 62.4614 134.982 67.7776C133.583 69.9575 131.493 71.5123 128.927 72.2795C126.387 73.041 123.557 72.9378 120.958 71.9941C119.471 71.4552 117.831 71.4366 116.331 71.9526C114.836 72.4669 113.558 73.4694 112.703 74.7987L111.627 76.4764C111.414 76.8077 111.51 77.2462 111.842 77.4587L114.727 79.3094C115.058 79.5219 115.496 79.4261 115.709 79.0948L116.785 77.4171C117.323 76.5783 118.379 76.2145 119.302 76.5504C122.874 77.8466 126.786 77.98 130.319 76.9281C132.104 76.3912 133.75 75.5768 135.222 74.4926C136.75 73.3686 138.042 71.9882 139.064 70.396C140.263 68.526 141.033 66.4558 141.346 64.251V64.251ZM110.537 82.6549C108.886 81.5959 106.685 82.0767 105.626 83.7277C104.567 85.3787 105.048 87.58 106.698 88.639C108.349 89.698 110.551 89.2172 111.61 87.5662C112.669 85.9152 112.188 83.7139 110.537 82.6549Z" fill="#18C4FF"/>
<g clip-path="url(#clip3_54_16)">
<path d="M302.65 159.75C303.382 157.743 303.708 155.613 303.608 153.419C303.411 148.954 301.492 144.708 298.211 141.472C294.93 138.235 290.658 136.375 286.195 136.235C283.995 136.169 281.875 136.521 279.874 137.284C277.787 138.079 275.942 139.282 274.382 140.863L273.178 142.083C272.902 142.364 272.905 142.812 273.185 143.089L275.625 145.496C275.906 145.772 276.354 145.769 276.631 145.489L277.834 144.269C282.27 139.772 289.88 140.066 294.806 144.924C299.732 149.783 300.13 157.388 295.694 161.885C293.876 163.729 291.509 164.818 288.839 165.038C286.197 165.258 283.45 164.572 281.101 163.112C279.758 162.277 278.158 161.92 276.584 162.115C275.015 162.309 273.557 163.026 272.446 164.15L271.046 165.569C270.77 165.849 270.773 166.298 271.053 166.574L273.493 168.981C273.773 169.258 274.222 169.255 274.499 168.974L275.898 167.555C276.598 166.846 277.706 166.708 278.54 167.228C281.767 169.234 285.567 170.173 289.241 169.874C291.098 169.718 292.877 169.261 294.541 168.505C296.269 167.721 297.819 166.637 299.147 165.29C300.707 163.709 301.888 161.842 302.65 159.75V159.75ZM268.702 171.389C267.306 170.011 265.053 170.027 263.676 171.423C262.298 172.82 262.314 175.073 263.71 176.45C265.106 177.828 267.36 177.812 268.737 176.416C270.114 175.019 270.099 172.766 268.702 171.389Z" fill="#18C4FF"/>
</g>
<path d="M226.816 447.275C226.69 449.407 226.986 451.541 227.71 453.615C229.176 457.837 232.23 461.357 236.3 463.519C240.369 465.681 244.995 466.241 249.312 465.098C251.438 464.532 253.37 463.589 255.069 462.285C256.84 460.926 258.265 459.246 259.307 457.284L260.111 455.77C260.296 455.423 260.164 454.993 259.817 454.809L256.79 453.2C256.442 453.016 256.013 453.147 255.828 453.495L255.024 455.008C252.061 460.586 244.685 462.482 238.575 459.236C232.465 455.99 229.907 448.816 232.871 443.239C234.086 440.952 236.042 439.231 238.537 438.256C241.006 437.289 243.834 437.16 246.502 437.888C248.028 438.303 249.664 438.187 251.117 437.55C252.564 436.915 253.756 435.811 254.499 434.417L255.435 432.656C255.619 432.309 255.488 431.88 255.14 431.695L252.113 430.087C251.766 429.902 251.336 430.034 251.152 430.381L250.217 432.141C249.749 433.021 248.727 433.47 247.779 433.211C244.113 432.212 240.203 432.399 236.769 433.737C235.034 434.418 233.46 435.365 232.081 436.566C230.651 437.811 229.475 439.293 228.588 440.963C227.546 442.925 226.948 445.052 226.816 447.275V447.275ZM256.015 426.409C257.747 427.33 259.902 426.67 260.822 424.938C261.742 423.206 261.083 421.051 259.35 420.131C257.618 419.211 255.464 419.87 254.543 421.602C253.623 423.335 254.283 425.489 256.015 426.409Z" fill="#18C4FF"/>
<path d="M361.659 19.2285C360.187 17.6807 358.424 16.4407 356.415 15.5544C352.329 13.7443 347.672 13.5737 343.314 15.0723C338.956 16.571 335.389 19.5697 333.279 23.5041C332.241 25.445 331.612 27.5006 331.405 29.6324C331.19 31.8546 331.445 34.0422 332.168 36.1431L332.725 37.7639C332.853 38.136 333.256 38.3329 333.629 38.205L336.87 37.0903C337.242 36.9623 337.439 36.5589 337.311 36.1868L336.754 34.566C334.7 28.5934 338.348 21.9084 344.891 19.6583C351.434 17.4083 358.422 20.4355 360.476 26.4081C361.318 28.8572 361.241 31.4615 360.25 33.95C359.272 36.4143 357.436 38.5696 355.083 40.0231C353.738 40.8549 352.706 42.1293 352.18 43.6258C351.656 45.1172 351.65 46.7415 352.162 48.237L352.81 50.1218C352.938 50.494 353.341 50.6909 353.713 50.5629L356.955 49.4482C357.327 49.3202 357.524 48.9169 357.396 48.5447L356.748 46.6599C356.423 45.7175 356.793 44.6641 357.629 44.1483C360.862 42.1504 363.393 39.1655 364.76 35.742C365.446 34.0092 365.829 32.2129 365.892 30.3856C365.958 28.49 365.677 26.6198 365.062 24.831C364.34 22.7301 363.194 20.8419 361.659 19.2285V19.2285ZM356.979 54.8097C355.125 55.4476 354.136 57.4724 354.774 59.3272C355.412 61.182 357.436 62.1705 359.291 61.5327C361.146 60.8948 362.135 58.87 361.497 57.0152C360.859 55.1604 358.834 54.1719 356.979 54.8097Z" fill="#18C4FF"/>
<path d="M461.522 233.687C462.718 231.917 463.55 229.93 463.984 227.777C464.875 223.397 464.041 218.812 461.642 214.878C459.242 210.944 455.547 208.104 451.251 206.888C449.133 206.291 446.99 206.118 444.864 206.374C442.647 206.641 440.566 207.36 438.669 208.517L437.206 209.409C436.87 209.614 436.764 210.051 436.969 210.387L438.754 213.313C438.958 213.649 439.395 213.755 439.731 213.55L441.194 212.657C446.586 209.369 453.899 211.496 457.501 217.403C461.104 223.31 459.648 230.786 454.256 234.074C452.045 235.423 449.485 235.906 446.842 235.474C444.225 235.047 441.725 233.717 439.8 231.731C438.699 230.596 437.233 229.862 435.658 229.669C434.089 229.478 432.501 229.82 431.151 230.642L429.449 231.679C429.113 231.884 429.007 232.32 429.212 232.656L430.997 235.583C431.202 235.919 431.638 236.025 431.974 235.82L433.676 234.782C434.527 234.263 435.635 234.398 436.318 235.103C438.964 237.832 442.423 239.663 446.06 240.263C447.9 240.561 449.736 240.549 451.534 240.218C453.4 239.875 455.166 239.2 456.781 238.215C458.678 237.058 460.276 235.533 461.522 233.687V233.687ZM425.766 236.758C424.745 235.084 422.555 234.553 420.88 235.575C419.206 236.596 418.675 238.786 419.696 240.46C420.718 242.135 422.908 242.665 424.582 241.644C426.257 240.623 426.787 238.433 425.766 236.758Z" fill="#18C4FF"/>
</g>
<defs>
<clipPath id="clip0_54_16">
<rect width="489" height="631" fill="white"/>
</clipPath>
<clipPath id="clip1_54_16">
<rect width="65" height="65" fill="white" transform="translate(418.366 542.507) rotate(135.129)"/>
</clipPath>
<clipPath id="clip2_54_16">
<rect width="65" height="65" fill="white" transform="translate(74.9619 450.924) rotate(-135)"/>
</clipPath>
<clipPath id="clip3_54_16">
<rect width="65" height="65" fill="white" transform="translate(280.645 113) rotate(44.6062)"/>
</clipPath>
</defs>
</svg>
