<svg width="174" height="174" viewBox="0 0 174 174" fill="none" xmlns="http://www.w3.org/2000/svg">
<path d="M112.665 81.8525L71.6301 40.89C70.9561 40.2105 70.1542 39.6711 69.2707 39.303C68.3873 38.935 67.4396 38.7455 66.4826 38.7455C65.5255 38.7455 64.5779 38.935 63.6944 39.303C62.8109 39.6711 62.009 40.2105 61.3351 40.89C59.9847 42.2484 59.2268 44.0859 59.2268 46.0012C59.2268 47.9166 59.9847 49.7541 61.3351 51.1125L97.2226 87.3625L61.3351 123.25C59.9847 124.608 59.2268 126.446 59.2268 128.361C59.2268 130.277 59.9847 132.114 61.3351 133.472C62.0065 134.158 62.8072 134.703 63.6908 135.076C64.5744 135.449 65.5233 135.644 66.4826 135.647C67.4418 135.644 68.3907 135.449 69.2743 135.076C70.1579 134.703 70.9586 134.158 71.6301 133.472L112.665 92.51C113.401 91.8311 113.988 91.0071 114.39 90.09C114.792 89.1729 114.999 88.1825 114.999 87.1812C114.999 86.18 114.792 85.1896 114.39 84.2725C113.988 83.3554 113.401 82.5314 112.665 81.8525V81.8525Z" fill="#0081F9"/>
</svg>
